<svg width="155" height="155" viewBox="0 0 155 155" fill="none" xmlns="http://www.w3.org/2000/svg">
<circle cx="77.5" cy="77.5" r="77.5" fill="#F1EFE4"/>
<path d="M60.3355 128.423C60.9487 128.634 61.5106 128.897 62.0212 129.212C62.5318 129.527 62.9571 129.895 63.2969 130.314C63.6231 130.741 63.8401 131.205 63.9479 131.708C64.042 132.218 63.9894 132.777 63.79 133.384C63.7728 133.436 63.7556 133.488 63.7384 133.541C63.7178 133.603 63.6972 133.649 63.6767 133.677L61.4079 132.897C61.4284 132.869 61.4473 132.829 61.4645 132.777C61.4817 132.725 61.4971 132.677 61.5109 132.636C61.6209 132.301 61.6268 131.988 61.5287 131.698C61.4204 131.405 61.2114 131.141 60.9017 130.906C60.5921 130.672 60.2073 130.476 59.7474 130.318C59.451 130.216 59.1853 130.142 58.9501 130.096C58.7013 130.057 58.4798 130.039 58.2854 130.043C58.0774 130.053 57.9017 130.085 57.7583 130.141C57.6048 130.193 57.4818 130.273 57.3895 130.381C57.2869 130.486 57.2098 130.616 57.1583 130.773C57.0654 131.056 57.0818 131.318 57.2073 131.559C57.3226 131.797 57.518 132.033 57.7936 132.267C58.059 132.498 58.3686 132.732 58.7226 132.971C59.0766 133.209 59.4408 133.45 59.8152 133.695C60.1862 133.951 60.54 134.224 60.8768 134.514C61.2102 134.815 61.4923 135.133 61.7233 135.469C61.9543 135.804 62.1033 136.182 62.1704 136.601C62.2375 137.02 62.1885 137.48 62.0235 137.983C61.8482 138.517 61.5897 138.94 61.2479 139.254C60.8958 139.564 60.4793 139.776 59.9982 139.89C59.5171 140.004 58.9971 140.03 58.4381 139.966C57.8756 139.912 57.2878 139.78 56.6746 139.569C56.1023 139.373 55.5813 139.124 55.1116 138.823C54.6384 138.532 54.2506 138.189 53.9482 137.794C53.6458 137.399 53.4526 136.966 53.3686 136.494C53.2744 136.02 53.3166 135.51 53.4954 134.966L53.5572 134.777L55.78 135.541L55.7388 135.667C55.646 135.949 55.6487 136.218 55.7469 136.473C55.8451 136.728 56.0235 136.964 56.282 137.181C56.5406 137.398 56.8692 137.575 57.2677 137.712C57.697 137.859 58.0786 137.944 58.4127 137.965C58.7366 137.983 59.0078 137.937 59.2263 137.826C59.4311 137.721 59.5697 137.559 59.6419 137.339C59.7243 137.088 59.7062 136.849 59.5875 136.622C59.4551 136.402 59.2562 136.176 58.9909 135.945C58.7119 135.721 58.3937 135.495 58.0363 135.268C57.6789 135.04 57.3147 134.799 56.9437 134.543C56.5727 134.288 56.2188 134.015 55.882 133.724C55.5452 133.434 55.2631 133.116 55.0355 132.77C54.8046 132.434 54.6538 132.062 54.5833 131.653C54.5128 131.245 54.5566 130.8 54.7147 130.318C54.9863 129.492 55.3987 128.894 55.9521 128.525C56.5054 128.156 57.1572 127.972 57.9073 127.974C58.6574 127.975 59.4668 128.125 60.3355 128.423Z" fill="#160E08"/>
<path d="M47.8036 121.905C48.7617 122.563 49.4699 123.294 49.9281 124.101C50.3804 124.916 50.5484 125.809 50.432 126.779C50.3067 127.743 49.8776 128.785 49.1448 129.904C48.0636 131.555 46.8677 132.509 45.5571 132.767C44.2316 133.027 42.848 132.663 41.4064 131.674C40.6184 131.133 40.0011 130.511 39.5545 129.805C39.1079 129.1 38.8858 128.35 38.888 127.554C38.8813 126.751 39.1512 125.933 39.6979 125.098L41.7126 126.48C41.4242 126.921 41.2705 127.354 41.2514 127.779C41.2233 128.198 41.3193 128.597 41.5396 128.974C41.7448 129.354 42.0579 129.688 42.4788 129.977C43.0518 130.37 43.6015 130.581 44.1277 130.61C44.645 130.632 45.1404 130.48 45.6138 130.154C46.0722 129.83 46.5117 129.347 46.9322 128.705L47.2115 128.279C47.644 127.618 47.9179 127.002 48.0331 126.43C48.1423 125.866 48.093 125.347 47.885 124.872C47.662 124.4 47.264 123.968 46.6909 123.575C46.2432 123.268 45.8026 123.078 45.3692 123.007C44.9358 122.936 44.5304 122.99 44.1531 123.17C43.7758 123.35 43.443 123.66 43.1547 124.1L41.2206 122.773C41.7672 121.939 42.3998 121.369 43.1184 121.064C43.828 120.753 44.5863 120.675 45.3933 120.83C46.1943 120.994 46.9977 121.353 47.8036 121.905Z" fill="#160E08"/>
<path d="M40.3569 116.015L31.9099 123.386L27.967 118.649C27.4357 118.011 27.1061 117.385 26.9782 116.772C26.8433 116.15 26.8896 115.559 27.1171 114.998C27.3364 114.444 27.7046 113.941 28.2217 113.49C28.7717 113.01 29.365 112.71 30.0016 112.589C30.63 112.476 31.2543 112.562 31.8744 112.847L33.7925 108.128L35.5227 110.207L33.7132 114.418L35.7161 116.824L38.7945 114.137L40.3569 116.015ZM34.2631 118.092L32.0924 115.484C31.7779 115.106 31.4224 114.909 31.0259 114.892C30.6213 114.883 30.2261 115.047 29.8403 115.383C29.594 115.598 29.4231 115.827 29.3276 116.07C29.2239 116.32 29.2003 116.573 29.2569 116.828C29.3134 117.083 29.45 117.341 29.6667 117.601L31.8373 120.209L34.2631 118.092Z" fill="#160E08"/>
<path d="M29.7105 99.4087C30.1928 100.506 30.417 101.54 30.3831 102.512C30.3492 103.484 30.0368 104.36 29.4458 105.142C28.8549 105.923 27.9744 106.583 26.8043 107.123C25.6146 107.673 24.5433 107.913 23.5905 107.844C22.6279 107.78 21.785 107.437 21.0618 106.814C20.3288 106.196 19.7211 105.339 19.2388 104.242C18.7476 103.125 18.5212 102.085 18.5596 101.124C18.5836 100.156 18.8911 99.2818 19.4821 98.5006C20.0632 97.724 20.9486 97.0611 22.1383 96.512C23.3084 95.972 24.3748 95.734 25.3374 95.7982C26.3 95.8623 27.1478 96.2033 27.8809 96.8213C28.6095 97.4293 29.2194 98.2917 29.7105 99.4087ZM27.9111 100.239C27.6943 99.7461 27.4352 99.3452 27.1339 99.0364C26.8325 98.7276 26.4888 98.5109 26.1029 98.3864C25.717 98.2619 25.2986 98.225 24.8478 98.2757C24.3871 98.331 23.9011 98.4766 23.3898 98.7126L22.9326 98.9236C22.4115 99.1641 21.9781 99.4428 21.6325 99.7597C21.2869 100.077 21.0366 100.422 20.8818 100.796C20.7171 101.175 20.6478 101.582 20.6738 102.018C20.6999 102.454 20.8213 102.918 21.0382 103.411C21.2505 103.894 21.5074 104.29 21.8088 104.599C22.1102 104.908 22.4538 105.125 22.8398 105.249C23.2159 105.378 23.6342 105.415 24.0949 105.36C24.5511 105.294 25.0398 105.142 25.561 104.901L26.0182 104.69C26.5295 104.454 26.9601 104.183 27.3102 103.876C27.646 103.563 27.8962 103.218 28.0609 102.839C28.2256 102.461 28.2949 102.053 28.2688 101.618C28.2428 101.182 28.1235 100.722 27.9111 100.239Z" fill="#160E08"/>
<path d="M26.2935 89.6625L15.334 91.4413L14.9585 89.0046L23.8891 87.555L23.0171 81.8965L25.0461 81.5672L26.2935 89.6625Z" fill="#160E08"/>
<path d="M25.0543 76.7404L14 75.7767L14.2064 73.3184L23.2142 74.1037L23.6934 68.3951L25.7399 68.5735L25.0543 76.7404Z" fill="#160E08"/>
<path d="M29.3283 56.5476L19.5356 51.2157L21.6645 47.1218C22.2069 46.0789 22.8442 45.2877 23.5765 44.7484C24.3087 44.2091 25.1379 43.9414 26.0639 43.9453C26.9855 43.9343 28.0077 44.2345 29.1307 44.8459C30.2442 45.4521 31.0586 46.152 31.574 46.9454C32.0946 47.7291 32.3408 48.5824 32.3128 49.5051C32.2847 50.4279 31.9995 51.4108 31.4572 52.4537L29.3283 56.5476ZM28.7053 53.413L29.6937 51.5123C29.9218 51.0737 30.0627 50.6501 30.1164 50.2416C30.1701 49.8331 30.1363 49.452 30.0149 49.0982C29.8841 48.7393 29.6683 48.403 29.3675 48.0891C29.0571 47.77 28.6593 47.4784 28.1739 47.2141L27.7457 46.9809C27.2603 46.7167 26.8064 46.5446 26.384 46.4646C25.952 46.3795 25.5588 46.3843 25.2043 46.4789C24.8403 46.5684 24.5077 46.75 24.2066 47.0238C23.8959 47.2924 23.6266 47.6461 23.3985 48.0847L22.4101 49.9854L28.7053 53.413Z" fill="#160E08"/>
<path d="M40.514 40.2999C39.6942 41.1628 38.8366 41.7569 37.9411 42.0822C37.0456 42.4075 36.1348 42.4325 35.2085 42.1571C34.2823 41.8818 33.3594 41.2863 32.44 40.3708C31.5052 39.4398 30.8944 38.508 30.6077 37.5754C30.3132 36.6351 30.3162 35.7061 30.6168 34.7884C30.9097 33.863 31.466 32.9688 32.2858 32.106C33.1207 31.2273 33.9821 30.6293 34.87 30.3119C35.7578 29.9789 36.6648 29.95 37.591 30.2254C38.5096 30.493 39.4362 31.0923 40.3711 32.0233C41.2905 32.9389 41.8974 33.8668 42.1919 34.8071C42.4864 35.7474 42.4872 36.6802 42.1943 37.6056C41.909 38.5232 41.3489 39.4213 40.514 40.2999ZM39.1002 38.892C39.4687 38.5041 39.738 38.1098 39.9082 37.7092C40.0783 37.3086 40.1492 36.9016 40.1209 36.4883C40.0926 36.075 39.9728 35.663 39.7615 35.2523C39.5425 34.834 39.2322 34.4248 38.8304 34.0247L38.4712 33.6669C38.0617 33.2591 37.6497 32.949 37.2351 32.7364C36.8206 32.5239 36.415 32.4127 36.0184 32.4029C35.614 32.3854 35.2186 32.4692 34.8322 32.6544C34.4457 32.8395 34.0682 33.1261 33.6997 33.514C33.3387 33.8939 33.0731 34.2842 32.903 34.6848C32.7329 35.0854 32.662 35.4924 32.6903 35.9057C32.7108 36.3114 32.8306 36.7234 33.0496 37.1417C33.2761 37.5522 33.5941 37.9613 34.0036 38.369L34.3629 38.7268C34.7646 39.1269 35.169 39.4371 35.576 39.6576C35.9828 39.8624 36.3884 39.9736 36.7928 39.9912C37.1971 40.0087 37.5925 39.9249 37.979 39.7397C38.3654 39.5545 38.7392 39.2719 39.1002 38.892Z" fill="#160E08"/>
<path d="M49.4815 32.4698L41.742 23.8085L44.0039 22.5893L48.5135 27.8097C48.5873 27.8822 48.6837 27.9986 48.8026 28.159C48.9165 28.3096 49.0355 28.47 49.1594 28.6401C49.2834 28.8103 49.3925 28.9635 49.4869 29.0997L49.5585 29.0611C49.5224 28.9434 49.474 28.8136 49.4133 28.6717C49.3621 28.5246 49.3135 28.3825 49.2673 28.2452C49.2257 28.0931 49.1844 27.9532 49.1433 27.8257C49.1117 27.6931 49.0831 27.59 49.0575 27.5165L47.3109 20.8068L49.8592 19.4333L54.2972 24.6923C54.376 24.7745 54.4724 24.891 54.5863 25.0416C54.7002 25.1922 54.8191 25.3526 54.9431 25.5227C55.0671 25.6928 55.1762 25.846 55.2705 25.9822L55.3421 25.9436C55.306 25.8259 55.2649 25.6984 55.2188 25.5612C55.1822 25.4188 55.1408 25.2789 55.0947 25.1417C55.0531 24.9895 55.0165 24.8471 54.9849 24.7145C54.9533 24.5818 54.9245 24.4664 54.8985 24.3682L53.2378 17.6122L55.2849 16.5088L57.8563 27.9557L55.4226 29.2675L50.8009 23.8643C50.702 23.743 50.5883 23.6048 50.4598 23.4495C50.3359 23.2794 50.2144 23.1141 50.0955 22.9538C49.9766 22.7934 49.8724 22.65 49.7831 22.5235L49.7258 22.5544C49.777 22.7014 49.8359 22.8754 49.9026 23.0764C49.9788 23.2723 50.043 23.4684 50.0952 23.6648C50.1568 23.856 50.206 24.0229 50.2426 24.1653L51.9868 31.1195L49.4815 32.4698Z" fill="#160E08"/>
<path d="M64.1548 25.8812L62.2873 14.6857L64.4714 14.3021L69.8789 19.5676C69.9554 19.6326 70.0532 19.7274 70.1725 19.852C70.2899 19.9658 70.402 20.0805 70.5089 20.1961C70.6157 20.3117 70.6914 20.4048 70.7359 20.4754L70.8157 20.4614C70.7848 20.2764 70.7549 20.0969 70.7258 19.9228C70.695 19.7379 70.6677 19.5747 70.6442 19.4332L69.6369 13.3948L71.8848 13L73.7524 24.1955L71.5682 24.5791L66.0405 19.1835C65.9089 19.0498 65.7691 18.9008 65.6214 18.7364C65.4736 18.572 65.365 18.4455 65.2955 18.3569L65.2158 18.3709C65.243 18.5341 65.2702 18.6973 65.2974 18.8605C65.3229 19.0128 65.3474 19.1597 65.371 19.3011L66.4027 25.4864L64.1548 25.8812Z" fill="#160E08"/>
<path d="M89.5701 25.7212L91.8209 16.7204L88.3739 15.8195L88.8754 13.814L98.1352 16.234L97.6337 18.2395L94.1711 17.3346L91.9203 26.3354L89.5701 25.7212Z" fill="#160E08"/>
<path d="M104.181 31.967C103.164 31.3645 102.392 30.6587 101.866 29.8494C101.34 29.0401 101.094 28.1419 101.13 27.1549C101.165 26.1679 101.504 25.1058 102.147 23.9686C102.801 22.8124 103.535 21.9776 104.349 21.4644C105.168 20.9416 106.048 20.717 106.991 20.7905C107.939 20.8545 108.921 21.1876 109.938 21.7901C110.973 22.4035 111.75 23.1122 112.267 23.9159C112.798 24.7157 113.046 25.6091 113.011 26.5961C112.981 27.5736 112.639 28.6404 111.985 29.7967C111.342 30.9338 110.611 31.7638 109.792 32.2866C108.973 32.8093 108.09 33.0388 107.142 32.9748C106.203 32.9164 105.216 32.5804 104.181 31.967ZM105.17 30.2183C105.627 30.4891 106.066 30.6598 106.487 30.7306C106.908 30.8013 107.311 30.7719 107.695 30.6425C108.08 30.5131 108.441 30.2933 108.778 29.9829C109.121 29.6629 109.433 29.2545 109.714 28.7576L109.966 28.3133C110.252 27.8068 110.446 27.3218 110.546 26.8581C110.646 26.3945 110.653 25.9646 110.566 25.5684C110.484 25.1627 110.308 24.7907 110.039 24.4524C109.769 24.1141 109.406 23.8096 108.949 23.5388C108.501 23.2735 108.066 23.1055 107.646 23.0348C107.225 22.9641 106.822 22.9934 106.437 23.1228C106.058 23.2426 105.697 23.4625 105.354 23.7824C105.021 24.1079 104.711 24.5239 104.424 25.0303L104.173 25.4747C103.892 25.9716 103.696 26.4491 103.587 26.9072C103.492 27.3613 103.485 27.7912 103.567 28.1969C103.649 28.6026 103.824 28.9746 104.094 29.3129C104.363 29.6512 104.722 29.953 105.17 30.2183Z" fill="#160E08"/>
<path d="M117.828 43.3594L126.872 36.7728L129.495 40.5501C130.163 41.5124 130.569 42.4493 130.712 43.3606C130.855 44.272 130.718 45.1508 130.3 45.997C129.896 46.8458 129.176 47.6479 128.139 48.4032C127.111 49.1521 126.134 49.5855 125.21 49.7032C124.293 49.8299 123.437 49.6744 122.643 49.2367C121.85 48.7991 121.119 48.099 120.451 47.1367L117.828 43.3594ZM120.845 44.1885L122.063 45.9423C122.344 46.347 122.651 46.6651 122.984 46.8967C123.317 47.1282 123.665 47.2674 124.028 47.3143C124.4 47.3547 124.791 47.3073 125.2 47.1719C125.617 47.0302 126.05 46.7961 126.499 46.4697L126.894 46.1816C127.342 45.8552 127.696 45.5164 127.955 45.1652C128.223 44.8077 128.395 44.4454 128.471 44.0786C128.556 43.7053 128.546 43.3196 128.442 42.9217C128.346 42.5173 128.158 42.1127 127.877 41.708L126.659 39.9542L120.845 44.1885Z" fill="#160E08"/>
<path d="M125.401 56.0661L135.621 51.6367L136.559 53.9086L126.339 58.3381L125.401 56.0661Z" fill="#160E08"/>
<path d="M128.91 68.4142C128.788 67.7638 128.736 67.1335 128.753 66.5231C128.77 65.9127 128.874 65.3527 129.063 64.843C129.266 64.3421 129.555 63.9198 129.929 63.576C130.317 63.2409 130.817 63.0127 131.431 62.8914C131.484 62.8809 131.537 62.8704 131.59 62.86C131.654 62.8474 131.702 62.8434 131.736 62.848L132.188 65.2542C132.154 65.2497 132.111 65.2526 132.058 65.2631C132.005 65.2735 131.957 65.2829 131.915 65.2913C131.576 65.3583 131.308 65.5069 131.109 65.7372C130.913 65.9783 130.791 66.2946 130.744 66.6862C130.696 67.0777 130.719 67.5173 130.81 68.0051C130.869 68.3194 130.937 68.5927 131.014 68.8249C131.103 69.0658 131.196 69.2721 131.294 69.4438C131.405 69.6243 131.519 69.7647 131.637 69.8651C131.757 69.9763 131.885 70.0465 132.023 70.0756C132.162 70.1155 132.311 70.1198 132.47 70.0884C132.756 70.0319 132.97 69.8883 133.114 69.6577C133.259 69.4379 133.364 69.1474 133.428 68.7863C133.494 68.436 133.541 68.0445 133.57 67.6117C133.598 67.1789 133.625 66.7352 133.649 66.2807C133.684 65.8242 133.742 65.3743 133.824 64.931C133.916 64.4856 134.048 64.0774 134.22 63.7062C134.392 63.335 134.639 63.0163 134.963 62.75C135.286 62.4838 135.702 62.3005 136.21 62.2001C136.75 62.0934 137.238 62.1151 137.672 62.2653C138.109 62.4264 138.494 62.6932 138.827 63.0657C139.161 63.4382 139.438 63.8893 139.658 64.4191C139.889 64.9468 140.065 65.5358 140.187 66.1861C140.301 66.7931 140.345 67.3801 140.32 67.9472C140.305 68.5121 140.204 69.0267 140.017 69.4909C139.83 69.955 139.556 70.3407 139.196 70.6478C138.839 70.9658 138.385 71.1791 137.834 71.2879L137.644 71.3256L137.201 68.9681L137.328 68.943C137.614 68.8865 137.841 68.7517 138.01 68.5385C138.178 68.3254 138.291 68.0501 138.349 67.7128C138.406 67.3754 138.395 66.9954 138.316 66.5727C138.231 66.1174 138.115 65.7356 137.969 65.4272C137.825 65.1296 137.653 64.9108 137.451 64.7709C137.261 64.6397 137.055 64.596 136.833 64.64C136.579 64.6902 136.384 64.8241 136.25 65.0419C136.127 65.2684 136.033 65.5567 135.967 65.907C135.914 66.266 135.878 66.6609 135.86 67.0916C135.842 67.5223 135.816 67.9659 135.781 68.4225C135.746 68.8791 135.687 69.329 135.606 69.7723C135.524 70.2155 135.392 70.6238 135.21 70.9971C135.038 71.3683 134.796 71.6859 134.483 71.9501C134.17 72.2142 133.77 72.3944 133.283 72.4906C132.447 72.6559 131.736 72.5828 131.15 72.2714C130.564 71.9599 130.088 71.4695 129.721 70.8002C129.353 70.1308 129.083 69.3355 128.91 68.4142Z" fill="#160E08"/>
<path d="M129.524 82.7957C129.612 81.6179 129.887 80.6262 130.347 79.8206C130.818 79.0157 131.495 78.4262 132.377 78.0519C133.259 77.6886 134.355 77.5579 135.667 77.6598C137.602 77.8102 139.001 78.406 139.864 79.4473C140.736 80.5005 141.106 81.9131 140.974 83.6853C140.901 84.654 140.675 85.511 140.295 86.2565C139.914 87.0019 139.385 87.5697 138.707 87.9599C138.028 88.3611 137.2 88.5237 136.221 88.4477L136.407 85.971C136.923 86.0111 137.367 85.9349 137.738 85.7423C138.108 85.5607 138.4 85.2789 138.612 84.8968C138.835 84.5266 138.965 84.0828 139.004 83.5655C139.057 82.861 138.966 82.2672 138.732 81.784C138.497 81.3118 138.124 80.9452 137.614 80.6841C137.114 80.4349 136.487 80.281 135.734 80.2225L135.235 80.1837C134.461 80.1236 133.802 80.1831 133.259 80.3623C132.726 80.5424 132.309 80.8421 132.007 81.2615C131.715 81.6928 131.543 82.2606 131.49 82.9651C131.449 83.5154 131.505 84.0014 131.657 84.4228C131.809 84.8443 132.054 85.1789 132.393 85.4266C132.731 85.6743 133.158 85.8182 133.674 85.8583L133.496 88.2359C132.518 88.1599 131.723 87.8767 131.11 87.3863C130.498 86.9069 130.059 86.2694 129.794 85.4738C129.54 84.6791 129.45 83.7864 129.524 82.7957Z" fill="#160E08"/>
<path d="M126.215 97.2137C126.628 96.0869 127.181 95.1906 127.874 94.5249C128.567 93.8592 129.392 93.4621 130.349 93.3338C131.305 93.2054 132.384 93.3716 133.585 93.8322C134.807 94.3007 135.732 94.9029 136.36 95.6391C136.998 96.3791 137.36 97.231 137.444 98.1948C137.538 99.1625 137.379 100.21 136.966 101.337C136.545 102.484 135.99 103.386 135.301 104.041C134.618 104.71 133.798 105.109 132.842 105.238C131.895 105.37 130.811 105.202 129.59 104.734C128.388 104.273 127.469 103.673 126.83 102.933C126.192 102.193 125.826 101.339 125.731 100.371C125.633 99.4137 125.794 98.3612 126.215 97.2137ZM128.062 97.9222C127.877 98.4287 127.784 98.9003 127.785 99.337C127.787 99.7737 127.881 100.176 128.069 100.542C128.257 100.909 128.528 101.237 128.883 101.526C129.247 101.82 129.692 102.067 130.217 102.268L130.686 102.448C131.221 102.653 131.721 102.768 132.184 102.792C132.647 102.817 133.062 102.752 133.429 102.598C133.807 102.448 134.136 102.209 134.418 101.88C134.699 101.552 134.933 101.135 135.118 100.628C135.3 100.132 135.391 99.6655 135.39 99.2288C135.388 98.7921 135.294 98.3903 135.106 98.0234C134.928 97.6605 134.657 97.3324 134.292 97.0393C133.924 96.7565 133.472 96.5126 132.937 96.3074L132.468 96.1274C131.943 95.9261 131.451 95.8081 130.991 95.7734C130.538 95.753 130.123 95.8178 129.746 95.9678C129.368 96.1179 129.039 96.3571 128.757 96.6854C128.476 97.0137 128.244 97.4259 128.062 97.9222Z" fill="#160E08"/>
<path d="M120.23 109.033L131.519 112.532L129.961 114.669L122.853 112.298C122.732 112.26 122.587 112.211 122.416 112.15C122.254 112.095 122.092 112.04 121.931 111.985C121.769 111.931 121.626 111.877 121.503 111.824L121.445 111.904C121.514 112.012 121.597 112.13 121.692 112.258C121.789 112.401 121.89 112.54 121.993 112.674C122.091 112.817 122.182 112.95 122.269 113.071L126.524 119.381L125.024 121.439L118.546 111.342L120.23 109.033Z" fill="#160E08"/>
<path d="M112.712 117.858L119.539 126.807L112.552 132.396L111.338 130.804L116.412 126.746L114.89 124.75L110.402 128.339L109.198 126.761L113.686 123.171L112.024 120.993L106.873 125.113L105.649 123.508L112.712 117.858Z" fill="#160E08"/>
<path d="M101.617 125.761L105.9 136.236L100.29 138.644C99.5338 138.969 98.851 139.1 98.2413 139.039C97.6216 138.982 97.0855 138.757 96.6329 138.365C96.1844 137.983 95.8291 137.472 95.5669 136.83C95.288 136.148 95.1896 135.478 95.2716 134.821C95.3577 134.174 95.628 133.591 96.0826 133.073L92.2769 129.77L94.7387 128.713L98.1049 131.756L100.955 130.533L99.3938 126.715L101.617 125.761ZM101.691 132.335L98.6028 133.66C98.1552 133.853 97.8633 134.139 97.727 134.521C97.5949 134.913 97.6266 135.348 97.8222 135.826C97.9471 136.132 98.1079 136.368 98.3048 136.535C98.5057 136.712 98.7336 136.811 98.9882 136.834C99.2429 136.856 99.5244 136.801 99.8328 136.669L102.921 135.343L101.691 132.335Z" fill="#160E08"/>
<path d="M78.0737 134.997C78.505 134.993 78.8886 135.083 79.2244 135.267C79.5604 135.463 79.8268 135.731 80.0239 136.071C80.2101 136.411 80.3051 136.802 80.3089 137.244C80.3128 137.697 80.2245 138.095 80.0442 138.439C79.8531 138.783 79.5912 139.056 79.2587 139.258C78.9262 139.46 78.5442 139.563 78.113 139.567C77.6709 139.572 77.2819 139.476 76.946 139.281C76.61 139.085 76.3435 138.817 76.1465 138.477C75.9495 138.137 75.8491 137.74 75.8452 137.288C75.8414 136.846 75.9351 136.453 76.1262 136.109C76.3173 135.765 76.5792 135.492 76.9117 135.29C77.2443 135.099 77.6317 135.002 78.0737 134.997Z" fill="#160E08"/>
</svg>
